<?xml version="1.0" encoding="UTF-8"?>
<svg viewBox="0 0 24 24" xmlns="http://www.w3.org/2000/svg">
  <defs>
    <linearGradient id="lidLightOff" x1="2" y1="6" x2="22" y2="18" gradientUnits="userSpaceOnUse">
      <stop offset="0" stop-color="#E8ECEF" />
      <stop offset="1" stop-color="#A9B2BA" />
    </linearGradient>
    <linearGradient id="lidShadowOff" x1="2" y1="8" x2="22" y2="20" gradientUnits="userSpaceOnUse">
      <stop offset="0" stop-color="#C7CFD6" />
      <stop offset="1" stop-color="#7E8A95" />
    </linearGradient>
    <radialGradient id="irisOff" cx="0.35" cy="0.35" r="0.75">
      <stop offset="0" stop-color="#DDE6ED" />
      <stop offset="0.6" stop-color="#8F9DA8" />
      <stop offset="1" stop-color="#5D6B78" />
    </radialGradient>
  </defs>

  <!-- outer lid -->
  <path d="M2.2 12C4.7 7.6 8.6 5 12 5C15.4 5 19.3 7.6 21.8 12C19.3 16.4 15.4 19 12 19C8.6 19 4.7 16.4 2.2 12Z" fill="url(#lidLightOff)" stroke="#5B6A76" stroke-width="1" />
  <!-- inner lid shadow -->
  <path d="M4.5 12C6.5 8.4 9.6 6.7 12 6.7C14.4 6.7 17.5 8.4 19.5 12C17.5 15.6 14.4 17.3 12 17.3C9.6 17.3 6.5 15.6 4.5 12Z" fill="url(#lidShadowOff)" opacity="0.4" />
  <!-- sclera -->
  <path d="M4.7 12C6.6 8.7 9.5 7.2 12 7.2C14.5 7.2 17.4 8.7 19.3 12C17.4 15.3 14.5 16.8 12 16.8C9.5 16.8 6.6 15.3 4.7 12Z" fill="#F6F7F9" />

  <!-- iris -->
  <circle cx="12" cy="12" r="3.6" fill="url(#irisOff)" stroke="#4B5862" stroke-width="0.8" />
  <!-- pupil -->
  <circle cx="12" cy="12" r="1.5" fill="#2C3842" />
  <!-- specular highlight -->
  <circle cx="10.7" cy="10.6" r="0.8" fill="#F4F6F8" />

  <!-- strike -->
  <path d="M4 4L20 20" stroke="#E11D48" stroke-width="2" stroke-linecap="round" />
</svg>
